<?xml version="1.0" encoding="UTF-8"?>
<!DOCTYPE svg PUBLIC "-//W3C//DTD SVG 1.1//EN" "http://www.w3.org/Graphics/SVG/1.1/DTD/svg11.dtd">
<svg xmlns="http://www.w3.org/2000/svg" version="1.1" width="144px" height="144px" style="shape-rendering:geometricPrecision; text-rendering:geometricPrecision; image-rendering:optimizeQuality; fill-rule:evenodd; clip-rule:evenodd" xmlns:xlink="http://www.w3.org/1999/xlink">
<g><path style="opacity:0.986" fill="#fefffe" d="M 61.5,11.5 C 89.4762,8.22201 107.643,19.8887 116,46.5C 116.333,56.5 116.667,66.5 117,76.5C 119.667,81.8333 122.333,87.1667 125,92.5C 126.426,97.7566 125.259,102.257 121.5,106C 88.9187,107.652 56.2521,107.985 23.5,107C 17.8912,103.723 16.0578,98.8897 18,92.5C 20.6667,87.1667 23.3333,81.8333 26,76.5C 26.3333,66.8333 26.6667,57.1667 27,47.5C 31.6003,28.7358 43.1003,16.7358 61.5,11.5 Z"/></g>
<g><path style="opacity:0.936" fill="#fefffe" d="M 53.5,113.5 C 65.5,113.5 77.5,113.5 89.5,113.5C 87.7633,123.567 81.7633,128.567 71.5,128.5C 61.2367,128.567 55.2367,123.567 53.5,113.5 Z"/></g>
</svg>
