<?xml version="1.0" encoding="UTF-8"?>
<!DOCTYPE svg PUBLIC "-//W3C//DTD SVG 1.1//EN" "http://www.w3.org/Graphics/SVG/1.1/DTD/svg11.dtd">
<svg xmlns="http://www.w3.org/2000/svg" version="1.1" width="96px" height="96px" style="shape-rendering:geometricPrecision; text-rendering:geometricPrecision; image-rendering:optimizeQuality; fill-rule:evenodd; clip-rule:evenodd" xmlns:xlink="http://www.w3.org/1999/xlink">
<g><path style="opacity:0.863" fill="#fefffe" d="M 44.5,10.5 C 48.9112,10.2028 52.9112,11.3694 56.5,14C 64.5,19.3333 72.5,24.6667 80.5,30C 82.3783,31.5429 83.8783,33.3762 85,35.5C 85.6667,50.5 85.6667,65.5 85,80.5C 83.8333,82.3333 82.3333,83.8333 80.5,85C 72.8406,85.4997 65.1739,85.6664 57.5,85.5C 57.9057,77.0826 57.4057,68.7492 56,60.5C 50.3333,56.5 44.6667,56.5 39,60.5C 37.5943,68.7492 37.0943,77.0826 37.5,85.5C 29.8261,85.6664 22.1594,85.4997 14.5,85C 12.6667,83.8333 11.1667,82.3333 10,80.5C 9.33333,65.5 9.33333,50.5 10,35.5C 11.1217,33.3762 12.6217,31.5429 14.5,30C 24.4056,23.2433 34.4056,16.7433 44.5,10.5 Z M 45.5,15.5 C 46.8734,15.3433 48.2068,15.51 49.5,16C 59.5,22.6667 69.5,29.3333 79.5,36C 80.2266,37.3988 80.7266,38.8988 81,40.5C 81.9408,53.2372 81.6074,65.9039 80,78.5C 78.8289,79.8932 77.3289,80.7265 75.5,81C 70.8452,81.4992 66.1785,81.6658 61.5,81.5C 61.6664,73.8261 61.4997,66.1594 61,58.5C 57.6968,54.0295 53.1968,52.3629 47.5,53.5C 41.8032,52.3629 37.3032,54.0295 34,58.5C 33.5003,66.1594 33.3336,73.8261 33.5,81.5C 28.8215,81.6658 24.1548,81.4992 19.5,81C 17.6711,80.7265 16.1711,79.8932 15,78.5C 13.3926,65.9039 13.0592,53.2372 14,40.5C 14.2734,38.8988 14.7734,37.3988 15.5,36C 25.7395,29.391 35.7395,22.5577 45.5,15.5 Z"/></g>
</svg>
