<?xml version="1.0" encoding="UTF-8"?>
<!DOCTYPE svg PUBLIC "-//W3C//DTD SVG 1.1//EN" "http://www.w3.org/Graphics/SVG/1.1/DTD/svg11.dtd">
<svg xmlns="http://www.w3.org/2000/svg" version="1.1" width="144px" height="144px" style="shape-rendering:geometricPrecision; text-rendering:geometricPrecision; image-rendering:optimizeQuality; fill-rule:evenodd; clip-rule:evenodd" xmlns:xlink="http://www.w3.org/1999/xlink">
<g><path style="opacity:0.986" fill="#fefffe" d="M 68.5,11.5 C 71.3198,11.2475 73.9865,11.7475 76.5,13C 91.9429,25.1418 107.11,37.6418 122,50.5C 123,52.5 124,54.5 125,56.5C 125.667,79.5 125.667,102.5 125,125.5C 124.167,126.333 123.333,127.167 122.5,128C 110.5,128.667 98.5,128.667 86.5,128C 85.6667,127.167 84.8333,126.333 84,125.5C 83.9341,114.095 83.2675,102.762 82,91.5C 81.5,90.3333 80.6667,89.5 79.5,89C 74.1667,88.3333 68.8333,88.3333 63.5,89C 62.3333,89.5 61.5,90.3333 61,91.5C 59.7325,102.762 59.0659,114.095 59,125.5C 58.1667,126.333 57.3333,127.167 56.5,128C 44.5,128.667 32.5,128.667 20.5,128C 19.6667,127.167 18.8333,126.333 18,125.5C 17.3333,102.5 17.3333,79.5 18,56.5C 20.3535,51.1419 23.8535,46.6419 28.5,43C 42.0843,32.7215 55.4176,22.2215 68.5,11.5 Z"/></g>
</svg>
