<?xml version="1.0" encoding="UTF-8"?>
<!DOCTYPE svg PUBLIC "-//W3C//DTD SVG 1.1//EN" "http://www.w3.org/Graphics/SVG/1.1/DTD/svg11.dtd">
<svg xmlns="http://www.w3.org/2000/svg" version="1.1" width="64px" height="64px" style="shape-rendering:geometricPrecision; text-rendering:geometricPrecision; image-rendering:optimizeQuality; fill-rule:evenodd; clip-rule:evenodd" xmlns:xlink="http://www.w3.org/1999/xlink">
<g><path style="opacity:0.972" fill="#fefffe" d="M 26.5,1.5 C 29.8499,1.33499 33.1832,1.50166 36.5,2C 44.6011,7.46789 52.4344,13.3012 60,19.5C 61.6257,31.7373 61.9591,44.0706 61,56.5C 59.8333,58.3333 58.3333,59.8333 56.5,61C 51.1667,61.6667 45.8333,61.6667 40.5,61C 39.6871,54.5809 39.1871,48.0809 39,41.5C 37.4714,38.484 34.9714,37.1506 31.5,37.5C 28.0286,37.1506 25.5286,38.484 24,41.5C 23.8129,48.0809 23.3129,54.5809 22.5,61C 17.1667,61.6667 11.8333,61.6667 6.5,61C 4.66667,59.8333 3.16667,58.3333 2,56.5C 1.33333,44.8333 1.33333,33.1667 2,21.5C 3.12173,19.3762 4.62173,17.5429 6.5,16C 13.4109,11.39 20.0776,6.55668 26.5,1.5 Z"/></g>
</svg>
