<?xml version="1.0" encoding="UTF-8"?>
<!DOCTYPE svg PUBLIC "-//W3C//DTD SVG 1.1//EN" "http://www.w3.org/Graphics/SVG/1.1/DTD/svg11.dtd">
<svg xmlns="http://www.w3.org/2000/svg" version="1.1" width="500px" height="500px" style="shape-rendering:geometricPrecision; text-rendering:geometricPrecision; image-rendering:optimizeQuality; fill-rule:evenodd; clip-rule:evenodd" xmlns:xlink="http://www.w3.org/1999/xlink">
<g><path style="opacity:0.97" fill="#fefffe" d="M 245.5,40.5 C 250.046,40.2681 254.379,41.1015 258.5,43C 308.5,82.3333 358.5,121.667 408.5,161C 424.867,174.718 434.367,192.218 437,213.5C 437.667,284.5 437.667,355.5 437,426.5C 434.247,436.919 427.747,443.753 417.5,447C 378.167,447.667 338.833,447.667 299.5,447C 289.566,444.067 283.4,437.567 281,427.5C 280.667,390.167 280.333,352.833 280,315.5C 279.167,314.667 278.333,313.833 277.5,313C 258.833,312.333 240.167,312.333 221.5,313C 220.667,313.833 219.833,314.667 219,315.5C 218.667,352.833 218.333,390.167 218,427.5C 215.6,437.567 209.434,444.067 199.5,447C 160.167,447.667 120.833,447.667 81.5,447C 72.8461,444.349 66.6794,438.849 63,430.5C 61.3461,358.211 61.0127,285.877 62,213.5C 64.6326,192.218 74.1326,174.718 90.5,161C 139.454,123.048 188.121,84.7145 236.5,46C 239.263,43.6258 242.263,41.7925 245.5,40.5 Z M 248.5,77.5 C 294.939,113.428 341.272,149.595 387.5,186C 397.657,194.479 403.49,205.312 405,218.5C 405.5,284.166 405.667,349.832 405.5,415.5C 374.5,415.5 343.5,415.5 312.5,415.5C 312.667,380.832 312.5,346.165 312,311.5C 308.727,295.559 299.227,285.393 283.5,281C 260.833,280.333 238.167,280.333 215.5,281C 199.773,285.393 190.273,295.559 187,311.5C 186.5,346.165 186.333,380.832 186.5,415.5C 155.5,415.5 124.5,415.5 93.5,415.5C 93.3333,349.832 93.5,284.166 94,218.5C 95.5098,205.312 101.343,194.479 111.5,186C 157.641,150.35 203.308,114.184 248.5,77.5 Z"/></g>
</svg>
