<?xml version="1.0" encoding="UTF-8"?>
<!DOCTYPE svg PUBLIC "-//W3C//DTD SVG 1.1//EN" "http://www.w3.org/Graphics/SVG/1.1/DTD/svg11.dtd">
<svg xmlns="http://www.w3.org/2000/svg" version="1.1" width="500px" height="500px" style="shape-rendering:geometricPrecision; text-rendering:geometricPrecision; image-rendering:optimizeQuality; fill-rule:evenodd; clip-rule:evenodd" xmlns:xlink="http://www.w3.org/1999/xlink">
<g><path style="opacity:0.963" fill="#fefffe" d="M 237.5,40.5 C 323.067,39.3505 387.9,75.0172 432,147.5C 468.441,218.564 467.108,288.897 428,358.5C 386.059,422.495 326.559,455.828 249.5,458.5C 178.242,456.458 121.408,427.125 79,370.5C 38.5104,309.73 30.177,244.73 54,175.5C 80.3365,110.415 127.17,67.9148 194.5,48C 208.788,44.3975 223.121,41.8975 237.5,40.5 Z M 245.5,72.5 C 319.841,74.564 374.341,108.231 409,173.5C 433.877,230.477 431.21,286.144 401,340.5C 365.56,395.151 315.06,423.817 249.5,426.5C 176.919,423.018 123.752,389.351 90,325.5C 65.1237,268.52 67.7904,212.853 98,158.5C 132.544,104.971 181.711,76.3043 245.5,72.5 Z"/></g>
<g><path style="opacity:0.971" fill="#fefffe" d="M 245.5,144.5 C 255.289,143.305 261.789,147.305 265,156.5C 265.5,182.165 265.667,207.831 265.5,233.5C 291.169,233.333 316.835,233.5 342.5,234C 353.907,238.879 357.074,247.046 352,258.5C 349.635,261.869 346.468,264.036 342.5,265C 316.835,265.5 291.169,265.667 265.5,265.5C 265.667,291.169 265.5,316.835 265,342.5C 260.121,353.907 251.954,357.074 240.5,352C 237.131,349.635 234.964,346.468 234,342.5C 233.5,316.835 233.333,291.169 233.5,265.5C 207.831,265.667 182.165,265.5 156.5,265C 145.093,260.121 141.926,251.954 147,240.5C 149.365,237.131 152.532,234.964 156.5,234C 182.165,233.5 207.831,233.333 233.5,233.5C 233.333,207.498 233.5,181.498 234,155.5C 236.437,150.226 240.271,146.56 245.5,144.5 Z"/></g>
</svg>
