<?xml version="1.0" encoding="UTF-8"?>
<!DOCTYPE svg PUBLIC "-//W3C//DTD SVG 1.1//EN" "http://www.w3.org/Graphics/SVG/1.1/DTD/svg11.dtd">
<svg xmlns="http://www.w3.org/2000/svg" version="1.1" width="144px" height="144px" style="shape-rendering:geometricPrecision; text-rendering:geometricPrecision; image-rendering:optimizeQuality; fill-rule:evenodd; clip-rule:evenodd" xmlns:xlink="http://www.w3.org/1999/xlink">
<g><path style="opacity:0.97" fill="#fefffe" d="M 60.5,11.5 C 97.6341,8.49715 121.134,24.8305 131,60.5C 134.487,97.6579 118.321,121.158 82.5,131C 50.9717,134.491 28.4717,121.991 15,93.5C 5.89383,64.072 13.3938,39.9053 37.5,21C 44.8193,16.6636 52.486,13.4969 60.5,11.5 Z M 69.5,42.5 C 71.7224,42.178 73.5557,42.8446 75,44.5C 75.4997,52.1594 75.6664,59.8261 75.5,67.5C 83.1739,67.3336 90.8406,67.5003 98.5,68C 101.167,70.3333 101.167,72.6667 98.5,75C 90.8406,75.4997 83.1739,75.6664 75.5,75.5C 75.6664,83.1739 75.4997,90.8406 75,98.5C 72.6667,101.167 70.3333,101.167 68,98.5C 67.5003,90.8406 67.3336,83.1739 67.5,75.5C 59.8261,75.6664 52.1594,75.4997 44.5,75C 41.8333,72.6667 41.8333,70.3333 44.5,68C 52.1594,67.5003 59.8261,67.3336 67.5,67.5C 67.3336,59.8261 67.5003,52.1594 68,44.5C 68.7172,43.9558 69.2172,43.2891 69.5,42.5 Z"/></g>
</svg>
