<?xml version="1.0" encoding="UTF-8"?>
<!DOCTYPE svg PUBLIC "-//W3C//DTD SVG 1.1//EN" "http://www.w3.org/Graphics/SVG/1.1/DTD/svg11.dtd">
<svg xmlns="http://www.w3.org/2000/svg" version="1.1" width="500px" height="500px" style="shape-rendering:geometricPrecision; text-rendering:geometricPrecision; image-rendering:optimizeQuality; fill-rule:evenodd; clip-rule:evenodd" xmlns:xlink="http://www.w3.org/1999/xlink">
<g><path style="opacity:0.96" fill="#fefffe" d="M 201.5,61.5 C 262.389,59.8572 309.555,84.1906 343,134.5C 371.666,186.839 371.666,239.173 343,291.5C 339.412,297.01 335.578,302.343 331.5,307.5C 365.153,341.653 398.986,375.653 433,409.5C 438.579,416.953 438.913,424.62 434,432.5C 426.005,438.947 417.838,439.114 409.5,433C 375.653,398.986 341.653,365.153 307.5,331.5C 262.454,365.247 213.121,373.08 159.5,355C 97.4156,328.218 64.7489,280.885 61.5,213C 64.7356,145.151 97.4023,97.818 159.5,71C 173.281,66.2181 187.281,63.0514 201.5,61.5 Z M 205.5,93.5 C 260.097,93.3651 299.264,117.698 323,166.5C 340.018,212.058 333.351,253.725 303,291.5C 266.161,329.668 222.328,340.835 171.5,325C 122.555,303.813 96.5546,266.48 93.5,213C 96.108,162.747 119.775,126.414 164.5,104C 177.78,98.4307 191.447,94.9307 205.5,93.5 Z"/></g>
</svg>
