<?xml version="1.0" standalone="no"?>
<!DOCTYPE svg PUBLIC "-//W3C//DTD SVG 20010904//EN"
 "http://www.w3.org/TR/2001/REC-SVG-20010904/DTD/svg10.dtd">
<svg version="1.0" xmlns="http://www.w3.org/2000/svg"
 width="512.000000pt" height="512.000000pt" viewBox="0 0 512.000000 512.000000"
 preserveAspectRatio="xMidYMid meet">

<g transform="translate(0.000000,512.000000) scale(0.100000,-0.100000)"
fill="#000000" stroke="none">
<path d="M1260 4785 c-227 -36 -442 -147 -610 -315 -169 -169 -277 -380 -315
-615 -22 -133 -22 -2443 0 -2585 74 -488 463 -869 960 -940 95 -13 2435 -13
2530 0 298 43 557 191 736 423 121 156 201 345 229 542 13 95 13 2435 0 2530
-52 366 -269 676 -588 843 -123 64 -226 99 -349 117 -138 21 -2461 20 -2593 0z
m1396 -1300 c63 -48 64 -57 64 -429 l0 -335 348 -3 349 -3 37 -29 c90 -68 86
-190 -8 -260 -26 -20 -42 -21 -376 -24 l-349 -3 -3 -349 c-3 -334 -4 -350 -24
-376 -32 -44 -68 -66 -116 -71 -58 -7 -108 15 -144 63 l-29 37 -3 349 -3 348
-335 0 c-373 0 -381 1 -430 66 -24 31 -29 47 -29 95 0 62 17 94 69 133 26 20
42 21 377 24 l349 3 0 334 c0 212 4 344 11 362 37 98 160 133 245 68z"/>
</g>
</svg>
