<?xml version="1.0" encoding="UTF-8"?>
<!DOCTYPE svg PUBLIC "-//W3C//DTD SVG 1.1//EN" "http://www.w3.org/Graphics/SVG/1.1/DTD/svg11.dtd">
<svg xmlns="http://www.w3.org/2000/svg" version="1.1" width="64px" height="64px" style="shape-rendering:geometricPrecision; text-rendering:geometricPrecision; image-rendering:optimizeQuality; fill-rule:evenodd; clip-rule:evenodd" xmlns:xlink="http://www.w3.org/1999/xlink">
<g><path style="opacity:0.727" fill="#000000" d="M 26.5,1.5 C 40.8332,0.0728829 50.3332,6.07288 55,19.5C 55.1705,24.8642 55.6705,30.1975 56.5,35.5C 62.7934,39.7992 63.1267,44.6326 57.5,50C 53.1667,50.3333 48.8333,50.6667 44.5,51C 40.4167,61.2054 33.4167,63.8721 23.5,59C 21.0696,56.8049 19.4029,54.1382 18.5,51C 14.1667,50.6667 9.83333,50.3333 5.5,50C 1.24681,46.5796 0.413474,42.4129 3,37.5C 4.08524,36.7069 5.2519,36.0402 6.5,35.5C 5.41786,24.5976 8.41786,15.0976 15.5,7C 18.9905,4.588 22.6571,2.75466 26.5,1.5 Z M 27.5,5.5 C 39.0799,4.8616 46.9132,9.8616 51,20.5C 51.1697,26.5275 51.6697,32.5275 52.5,38.5C 57.36,39.7782 58.36,42.2782 55.5,46C 39.5,46.6667 23.5,46.6667 7.5,46C 4.64002,42.2782 5.64002,39.7782 10.5,38.5C 11.3303,32.5275 11.8303,26.5275 12,20.5C 14.5032,12.679 19.6699,7.67904 27.5,5.5 Z M 23.5,50.5 C 28.8333,50.5 34.1667,50.5 39.5,50.5C 37.3987,57.2113 33.0654,59.0446 26.5,56C 24.393,54.7365 23.393,52.9032 23.5,50.5 Z"/></g>
</svg>
