<?xml version="1.0" encoding="UTF-8"?>
<!DOCTYPE svg PUBLIC "-//W3C//DTD SVG 1.1//EN" "http://www.w3.org/Graphics/SVG/1.1/DTD/svg11.dtd">
<svg xmlns="http://www.w3.org/2000/svg" version="1.1" width="96px" height="96px" style="shape-rendering:geometricPrecision; text-rendering:geometricPrecision; image-rendering:optimizeQuality; fill-rule:evenodd; clip-rule:evenodd" xmlns:xlink="http://www.w3.org/1999/xlink">
<g><path style="opacity:0.965" fill="#000000" d="M 37.5,3.5 C 62.8162,0.231419 80.3162,10.2314 90,33.5C 95.9817,60.3716 86.4817,79.2049 61.5,90C 34.6284,95.9817 15.7951,86.4817 5,61.5C -0.981822,32.4428 9.85151,13.1095 37.5,3.5 Z M 45.5,24.5 C 48.2385,23.9648 50.0718,24.9648 51,27.5C 51.4994,32.8229 51.666,38.1563 51.5,43.5C 56.8437,43.334 62.1771,43.5006 67.5,44C 71.5,46.3333 71.5,48.6667 67.5,51C 62.1771,51.4994 56.8437,51.666 51.5,51.5C 51.666,56.8437 51.4994,62.1771 51,67.5C 48.6667,71.5 46.3333,71.5 44,67.5C 43.5006,62.1771 43.334,56.8437 43.5,51.5C 38.1563,51.666 32.8229,51.4994 27.5,51C 23.5,48.6667 23.5,46.3333 27.5,44C 32.8229,43.5006 38.1563,43.334 43.5,43.5C 42.968,36.9516 43.6347,30.6183 45.5,24.5 Z"/></g>
</svg>
