<?xml version="1.0" encoding="UTF-8"?>
<!DOCTYPE svg PUBLIC "-//W3C//DTD SVG 1.1//EN" "http://www.w3.org/Graphics/SVG/1.1/DTD/svg11.dtd">
<svg xmlns="http://www.w3.org/2000/svg" version="1.1" width="512px" height="512px" style="shape-rendering:geometricPrecision; text-rendering:geometricPrecision; image-rendering:optimizeQuality; fill-rule:evenodd; clip-rule:evenodd" xmlns:xlink="http://www.w3.org/1999/xlink">
<g><path style="opacity:0.944" fill="#000000" d="M 241.5,40.5 C 286.573,36.621 321.073,53.621 345,91.5C 364.576,130.045 362.576,167.379 339,203.5C 306.007,243.377 264.84,254.877 215.5,238C 166.934,213.706 146.767,174.539 155,120.5C 167.096,75.5656 195.929,48.8989 241.5,40.5 Z M 246.5,61.5 C 280.172,59.7529 306.338,72.7529 325,100.5C 342.901,134.869 339.901,167.202 316,197.5C 285.023,227.102 250.523,231.935 212.5,212C 181.058,189.694 169.224,159.528 177,121.5C 188.051,87.2711 211.218,67.2711 246.5,61.5 Z"/></g>
<g><path style="opacity:0.942" fill="#000000" d="M 217.5,265.5 C 242.836,265.333 268.169,265.5 293.5,266C 368.57,275.105 422.403,313.605 455,381.5C 465.407,406.125 470.907,431.792 471.5,458.5C 471.173,465.658 467.507,469.824 460.5,471C 323.833,471.667 187.167,471.667 50.5,471C 43.6216,470.288 39.955,466.454 39.5,459.5C 42.5666,383.147 76.8999,325.981 142.5,288C 166.192,275.71 191.192,268.21 217.5,265.5 Z M 224.5,286.5 C 245.169,286.333 265.836,286.5 286.5,287C 348.039,292.335 394.873,321.168 427,373.5C 440.266,397.131 447.766,422.464 449.5,449.5C 320.167,449.5 190.833,449.5 61.5,449.5C 67.7998,382.408 100.8,333.575 160.5,303C 180.999,293.741 202.332,288.241 224.5,286.5 Z"/></g>
</svg>
