<?xml version="1.0" encoding="UTF-8"?>
<!DOCTYPE svg PUBLIC "-//W3C//DTD SVG 1.1//EN" "http://www.w3.org/Graphics/SVG/1.1/DTD/svg11.dtd">
<svg xmlns="http://www.w3.org/2000/svg" version="1.1" width="500px" height="500px" style="shape-rendering:geometricPrecision; text-rendering:geometricPrecision; image-rendering:optimizeQuality; fill-rule:evenodd; clip-rule:evenodd" xmlns:xlink="http://www.w3.org/1999/xlink">
<g><path style="opacity:0.968" fill="#000000" d="M 239.5,40.5 C 312.402,40.1791 364.235,72.8458 395,138.5C 401.195,154.611 404.861,171.278 406,188.5C 406.333,218.5 406.667,248.5 407,278.5C 416.939,298.044 426.605,317.71 436,337.5C 440.109,362.047 430.276,377.88 406.5,385C 375.168,385.5 343.835,385.667 312.5,385.5C 310.136,418.695 292.802,439.195 260.5,447C 223.121,450.404 198.954,434.238 188,398.5C 187.077,394.21 186.577,389.877 186.5,385.5C 155.165,385.667 123.832,385.5 92.5,385C 67.294,377.092 57.794,360.259 64,334.5C 73.3333,315.833 82.6667,297.167 92,278.5C 92.3333,249.833 92.6667,221.167 93,192.5C 98.6998,127.885 130.533,81.3849 188.5,53C 204.995,46.2067 221.995,42.0401 239.5,40.5 Z M 245.5,72.5 C 293.985,73.3153 331.152,93.9819 357,134.5C 365.533,149.433 370.866,165.433 373,182.5C 374.221,217.151 374.888,251.817 375,286.5C 384.728,306.956 394.728,327.29 405,347.5C 405.711,349.367 405.211,350.867 403.5,352C 301.581,353.662 199.581,353.995 97.5,353C 94.6059,352.131 93.4392,350.298 94,347.5C 104.272,327.29 114.272,306.956 124,286.5C 124.126,252.818 124.792,219.151 126,185.5C 131.7,146.503 150.533,115.67 182.5,93C 201.789,80.6253 222.789,73.792 245.5,72.5 Z M 218.5,385.5 C 239.167,385.5 259.833,385.5 280.5,385.5C 276.48,408.845 262.814,418.345 239.5,414C 226.774,408.712 219.774,399.212 218.5,385.5 Z"/></g>
</svg>
