<?xml version="1.0" standalone="no"?>
<!DOCTYPE svg PUBLIC "-//W3C//DTD SVG 20010904//EN"
 "http://www.w3.org/TR/2001/REC-SVG-20010904/DTD/svg10.dtd">
<svg version="1.0" xmlns="http://www.w3.org/2000/svg"
 width="512.000000pt" height="512.000000pt" viewBox="0 0 512.000000 512.000000"
 preserveAspectRatio="xMidYMid meet">

<g transform="translate(0.000000,512.000000) scale(0.100000,-0.100000)"
fill="#000000" stroke="none">
<path d="M2349 4670 c-108 -22 -239 -75 -332 -134 -68 -43 -1223 -990 -1316
-1079 -109 -105 -198 -257 -243 -412 l-23 -80 0 -900 c0 -852 1 -904 19 -970
89 -328 331 -573 639 -645 81 -19 113 -21 405 -18 l317 3 67 32 c94 44 160
109 206 202 l37 75 5 450 c6 430 7 454 27 509 12 32 33 77 47 100 35 61 127
144 193 175 52 24 70 27 163 27 93 0 111 -3 163 -27 66 -31 158 -114 194 -176
14 -23 35 -71 46 -105 20 -58 21 -91 26 -508 l6 -445 37 -75 c46 -93 112 -158
206 -202 l67 -32 317 -3 c292 -3 324 -1 405 18 268 63 491 259 596 522 65 162
61 98 65 1052 3 959 3 956 -60 1119 -38 98 -128 234 -205 309 -107 104 -1247
1039 -1328 1089 -214 133 -498 182 -746 129z"/>
</g>
</svg>
