<?xml version="1.0" encoding="UTF-8"?>
<!DOCTYPE svg PUBLIC "-//W3C//DTD SVG 1.1//EN" "http://www.w3.org/Graphics/SVG/1.1/DTD/svg11.dtd">
<svg xmlns="http://www.w3.org/2000/svg" version="1.1" width="96px" height="96px" style="shape-rendering:geometricPrecision; text-rendering:geometricPrecision; image-rendering:optimizeQuality; fill-rule:evenodd; clip-rule:evenodd" xmlns:xlink="http://www.w3.org/1999/xlink">
<g><path style="opacity:0.841" fill="#000000" d="M 37.5,4.5 C 63.9614,1.47065 81.4614,12.4707 90,37.5C 93.565,64.5599 82.3984,82.0599 56.5,90C 30.3336,93.178 13.1669,82.3446 5,57.5C 1.59996,30.9469 12.4333,13.2802 37.5,4.5 Z M 39.5,11.5 C 65.9475,9.36254 80.6141,21.3625 83.5,47.5C 81.8333,69.8333 69.8333,81.8333 47.5,83.5C 21.216,80.6342 9.38266,65.9675 12,39.5C 16.0159,24.985 25.1825,15.6517 39.5,11.5 Z"/></g>
<g><path style="opacity:0.967" fill="#000000" d="M 44.5,24.5 C 46.5,24.5 48.5,24.5 50.5,24.5C 50.5,31.1667 50.5,37.8333 50.5,44.5C 57.1667,44.5 63.8333,44.5 70.5,44.5C 70.5,46.5 70.5,48.5 70.5,50.5C 63.8333,50.5 57.1667,50.5 50.5,50.5C 50.5,57.1667 50.5,63.8333 50.5,70.5C 48.5,70.5 46.5,70.5 44.5,70.5C 44.5,63.8333 44.5,57.1667 44.5,50.5C 37.8333,50.5 31.1667,50.5 24.5,50.5C 24.5,48.5 24.5,46.5 24.5,44.5C 31.1667,44.5 37.8333,44.5 44.5,44.5C 44.5,37.8333 44.5,31.1667 44.5,24.5 Z"/></g>
</svg>
