<?xml version="1.0" encoding="UTF-8"?>
<!DOCTYPE svg PUBLIC "-//W3C//DTD SVG 1.1//EN" "http://www.w3.org/Graphics/SVG/1.1/DTD/svg11.dtd">
<svg xmlns="http://www.w3.org/2000/svg" version="1.1" width="144px" height="144px" style="shape-rendering:geometricPrecision; text-rendering:geometricPrecision; image-rendering:optimizeQuality; fill-rule:evenodd; clip-rule:evenodd" xmlns:xlink="http://www.w3.org/1999/xlink">
<g><path style="opacity:0.937" fill="#191919" d="M 51.5,17.5 C 74.8807,14.6028 91.714,23.6028 102,44.5C 104.89,54.4046 105.223,64.4046 103,74.5C 101.486,79.0285 99.3194,83.1952 96.5,87C 106,96.5 115.5,106 125,115.5C 127.167,124 124,127.167 115.5,125C 106,115.5 96.5,106 87,96.5C 76.3125,104.039 64.4791,106.539 51.5,104C 33.6667,99.5 22.5,88.3333 18,70.5C 15.0587,43.682 26.2254,26.0153 51.5,17.5 Z M 60.5,29.5 C 83.1576,32.6638 93.3243,45.6638 91,68.5C 86.3333,83.1667 76.3333,91.1667 61,92.5C 38.5427,89.0463 28.5427,76.0463 31,53.5C 35.6686,38.9854 45.502,30.9854 60.5,29.5 Z"/></g>
</svg>
